<?xml version="1.0" encoding="UTF-8" standalone="no"?>
<!DOCTYPE svg PUBLIC "-//W3C//DTD SVG 1.1//EN"
 "http://www.w3.org/Graphics/SVG/1.1/DTD/svg11.dtd">
<!-- Generated by graphviz version 2.47.3 (20210619.1520)
 -->
<!-- Title: dependencies Pages: 1 -->
<svg width="789pt" height="247pt"
 viewBox="0.00 0.00 789.00 246.80" xmlns="http://www.w3.org/2000/svg" xmlns:xlink="http://www.w3.org/1999/xlink">
<g id="graph0" class="graph" transform="scale(1 1) rotate(0) translate(4 242.8)">
<title>dependencies</title>
<polygon fill="white" stroke="transparent" points="-4,4 -4,-242.8 785,-242.8 785,4 -4,4"/>
<text text-anchor="middle" x="390.5" y="-8.2" font-family="sans-serif" font-size="14.00">dependencies</text>
<g id="clust1" class="cluster">
<title>cluster_AppModule</title>
<polygon fill="none" stroke="black" stroke-dasharray="1,5" points="8,-32.8 8,-230.8 773,-230.8 773,-32.8 8,-32.8"/>
</g>
<g id="clust7" class="cluster">
<title>cluster_AppModule_imports</title>
<polygon fill="none" stroke="black" points="621,-40.8 621,-92.8 765,-92.8 765,-40.8 621,-40.8"/>
</g>
<g id="clust9" class="cluster">
<title>cluster_AppModule_bootstrap</title>
<polygon fill="none" stroke="black" points="332,-170.8 332,-222.8 456,-222.8 456,-170.8 332,-170.8"/>
</g>
<g id="clust2" class="cluster">
<title>cluster_AppModule_declarations</title>
<polygon fill="none" stroke="black" points="16,-40.8 16,-92.8 613,-92.8 613,-40.8 16,-40.8"/>
</g>
<!-- AppComponent -->
<g id="node1" class="node">
<title>AppComponent</title>
<polygon fill="#ffffb3" stroke="black" points="604.94,-84.8 499.06,-84.8 499.06,-48.8 604.94,-48.8 604.94,-84.8"/>
<text text-anchor="middle" x="552" y="-62.6" font-family="Times,serif" font-size="14.00">AppComponent</text>
</g>
<!-- AppModule -->
<g id="node5" class="node">
<title>AppModule</title>
<polygon fill="#8dd3c7" stroke="black" points="435.66,-149.8 432.66,-153.8 411.66,-153.8 408.66,-149.8 352.34,-149.8 352.34,-113.8 435.66,-113.8 435.66,-149.8"/>
<text text-anchor="middle" x="394" y="-127.6" font-family="Times,serif" font-size="14.00">AppModule</text>
</g>
<!-- AppComponent&#45;&gt;AppModule -->
<g id="edge1" class="edge">
<title>AppComponent&#45;&gt;AppModule</title>
<path fill="none" stroke="black" d="M552,-84.82C552,-102.17 552,-125.8 552,-125.8 552,-125.8 445.93,-125.8 445.93,-125.8"/>
<polygon fill="black" stroke="black" points="445.93,-122.3 435.93,-125.8 445.93,-129.3 445.93,-122.3"/>
</g>
<!-- KeyResultBoardComponent -->
<g id="node2" class="node">
<title>KeyResultBoardComponent</title>
<polygon fill="#ffffb3" stroke="black" points="481.14,-84.8 306.86,-84.8 306.86,-48.8 481.14,-48.8 481.14,-84.8"/>
<text text-anchor="middle" x="394" y="-62.6" font-family="Times,serif" font-size="14.00">KeyResultBoardComponent</text>
</g>
<!-- KeyResultBoardComponent&#45;&gt;AppModule -->
<g id="edge2" class="edge">
<title>KeyResultBoardComponent&#45;&gt;AppModule</title>
<path fill="none" stroke="black" d="M394,-84.91C394,-84.91 394,-103.79 394,-103.79"/>
<polygon fill="black" stroke="black" points="390.5,-103.79 394,-113.79 397.5,-103.79 390.5,-103.79"/>
</g>
<!-- TooltipComponent -->
<g id="node3" class="node">
<title>TooltipComponent</title>
<polygon fill="#ffffb3" stroke="black" points="288.06,-84.8 165.94,-84.8 165.94,-48.8 288.06,-48.8 288.06,-84.8"/>
<text text-anchor="middle" x="227" y="-62.6" font-family="Times,serif" font-size="14.00">TooltipComponent</text>
</g>
<!-- TooltipComponent&#45;&gt;AppModule -->
<g id="edge3" class="edge">
<title>TooltipComponent&#45;&gt;AppModule</title>
<path fill="none" stroke="black" d="M227,-84.82C227,-102.17 227,-125.8 227,-125.8 227,-125.8 342.29,-125.8 342.29,-125.8"/>
<polygon fill="black" stroke="black" points="342.29,-129.3 352.29,-125.8 342.29,-122.3 342.29,-129.3"/>
</g>
<!-- TopBarComponent -->
<g id="node4" class="node">
<title>TopBarComponent</title>
<polygon fill="#ffffb3" stroke="black" points="148.1,-84.8 23.9,-84.8 23.9,-48.8 148.1,-48.8 148.1,-84.8"/>
<text text-anchor="middle" x="86" y="-62.6" font-family="Times,serif" font-size="14.00">TopBarComponent</text>
</g>
<!-- TopBarComponent&#45;&gt;AppModule -->
<g id="edge4" class="edge">
<title>TopBarComponent&#45;&gt;AppModule</title>
<path fill="none" stroke="black" d="M86,-85.08C86,-106.12 86,-137.8 86,-137.8 86,-137.8 342.14,-137.8 342.14,-137.8"/>
<polygon fill="black" stroke="black" points="342.14,-141.3 352.14,-137.8 342.14,-134.3 342.14,-141.3"/>
</g>
<!-- AppComponent  -->
<g id="node7" class="node">
<title>AppComponent </title>
<polygon fill="#80b1d3" stroke="black" points="448.44,-214.8 339.56,-214.8 339.56,-178.8 448.44,-178.8 448.44,-214.8"/>
<text text-anchor="middle" x="394" y="-192.6" font-family="Times,serif" font-size="14.00">AppComponent </text>
</g>
<!-- AppModule&#45;&gt;AppComponent  -->
<g id="edge6" class="edge">
<title>AppModule&#45;&gt;AppComponent </title>
<path fill="none" stroke="black" stroke-dasharray="1,5" d="M394,-149.91C394,-149.91 394,-168.79 394,-168.79"/>
<polygon fill="black" stroke="black" points="390.5,-168.79 394,-178.79 397.5,-168.79 390.5,-168.79"/>
</g>
<!-- AppRoutingModule -->
<g id="node6" class="node">
<title>AppRoutingModule</title>
<polygon fill="#8dd3c7" stroke="black" points="757.27,-84.8 754.27,-88.8 733.27,-88.8 730.27,-84.8 628.73,-84.8 628.73,-48.8 757.27,-48.8 757.27,-84.8"/>
<text text-anchor="middle" x="693" y="-62.6" font-family="Times,serif" font-size="14.00">AppRoutingModule</text>
</g>
<!-- AppRoutingModule&#45;&gt;AppModule -->
<g id="edge5" class="edge">
<title>AppRoutingModule&#45;&gt;AppModule</title>
<path fill="none" stroke="black" d="M693,-85.08C693,-106.12 693,-137.8 693,-137.8 693,-137.8 445.89,-137.8 445.89,-137.8"/>
<polygon fill="black" stroke="black" points="445.89,-134.3 435.89,-137.8 445.89,-141.3 445.89,-134.3"/>
</g>
</g>
</svg>
