<?xml version="1.0" encoding="UTF-8" standalone="no"?>
<!DOCTYPE svg PUBLIC "-//W3C//DTD SVG 1.1//EN"
 "http://www.w3.org/Graphics/SVG/1.1/DTD/svg11.dtd">
<!-- Generated by graphviz version 2.47.3 (20210619.1520)
 -->
<!-- Title: dependencies Pages: 1 -->
<svg width="789pt" height="247pt"
 viewBox="0.00 0.00 789.00 246.80" xmlns="http://www.w3.org/2000/svg" xmlns:xlink="http://www.w3.org/1999/xlink">
<g id="graph0" class="graph" transform="scale(1 1) rotate(0) translate(4 242.8)">
<title>dependencies</title>
<polygon fill="white" stroke="transparent" points="-4,4 -4,-242.8 785,-242.8 785,4 -4,4"/>
<text text-anchor="middle" x="390.5" y="-8.2" font-family="sans-serif" font-size="14.00">dependencies</text>
<g id="clust1" class="cluster">
<title>cluster_AppModule</title>
<polygon fill="none" stroke="black" stroke-dasharray="1,5" points="8,-32.8 8,-230.8 773,-230.8 773,-32.8 8,-32.8"/>
</g>
<g id="clust2" class="cluster">
<title>cluster_AppModule_declarations</title>
<polygon fill="none" stroke="black" points="168,-40.8 168,-92.8 765,-92.8 765,-40.8 168,-40.8"/>
</g>
<g id="clust7" class="cluster">
<title>cluster_AppModule_imports</title>
<polygon fill="none" stroke="black" points="16,-40.8 16,-92.8 160,-92.8 160,-40.8 16,-40.8"/>
</g>
<g id="clust9" class="cluster">
<title>cluster_AppModule_bootstrap</title>
<polygon fill="none" stroke="black" points="317,-170.8 317,-222.8 441,-222.8 441,-170.8 317,-170.8"/>
</g>
<!-- AppComponent -->
<g id="node1" class="node">
<title>AppComponent</title>
<polygon fill="#ffffb3" stroke="black" points="756.94,-84.8 651.06,-84.8 651.06,-48.8 756.94,-48.8 756.94,-84.8"/>
<text text-anchor="middle" x="704" y="-62.6" font-family="Times,serif" font-size="14.00">AppComponent</text>
</g>
<!-- AppModule -->
<g id="node5" class="node">
<title>AppModule</title>
<polygon fill="#8dd3c7" stroke="black" points="420.66,-149.8 417.66,-153.8 396.66,-153.8 393.66,-149.8 337.34,-149.8 337.34,-113.8 420.66,-113.8 420.66,-149.8"/>
<text text-anchor="middle" x="379" y="-127.6" font-family="Times,serif" font-size="14.00">AppModule</text>
</g>
<!-- AppComponent&#45;&gt;AppModule -->
<g id="edge1" class="edge">
<title>AppComponent&#45;&gt;AppModule</title>
<path fill="none" stroke="black" d="M704,-85.08C704,-106.12 704,-137.8 704,-137.8 704,-137.8 430.82,-137.8 430.82,-137.8"/>
<polygon fill="black" stroke="black" points="430.82,-134.3 420.82,-137.8 430.82,-141.3 430.82,-134.3"/>
</g>
<!-- KeyResultBoardComponent -->
<g id="node2" class="node">
<title>KeyResultBoardComponent</title>
<polygon fill="#ffffb3" stroke="black" points="633.14,-84.8 458.86,-84.8 458.86,-48.8 633.14,-48.8 633.14,-84.8"/>
<text text-anchor="middle" x="546" y="-62.6" font-family="Times,serif" font-size="14.00">KeyResultBoardComponent</text>
</g>
<!-- KeyResultBoardComponent&#45;&gt;AppModule -->
<g id="edge2" class="edge">
<title>KeyResultBoardComponent&#45;&gt;AppModule</title>
<path fill="none" stroke="black" d="M546,-84.82C546,-102.17 546,-125.8 546,-125.8 546,-125.8 430.71,-125.8 430.71,-125.8"/>
<polygon fill="black" stroke="black" points="430.71,-122.3 420.71,-125.8 430.71,-129.3 430.71,-122.3"/>
</g>
<!-- TooltipComponent -->
<g id="node3" class="node">
<title>TooltipComponent</title>
<polygon fill="#ffffb3" stroke="black" points="440.06,-84.8 317.94,-84.8 317.94,-48.8 440.06,-48.8 440.06,-84.8"/>
<text text-anchor="middle" x="379" y="-62.6" font-family="Times,serif" font-size="14.00">TooltipComponent</text>
</g>
<!-- TooltipComponent&#45;&gt;AppModule -->
<g id="edge3" class="edge">
<title>TooltipComponent&#45;&gt;AppModule</title>
<path fill="none" stroke="black" d="M379,-84.91C379,-84.91 379,-103.79 379,-103.79"/>
<polygon fill="black" stroke="black" points="375.5,-103.79 379,-113.79 382.5,-103.79 375.5,-103.79"/>
</g>
<!-- TopBarComponent -->
<g id="node4" class="node">
<title>TopBarComponent</title>
<polygon fill="#ffffb3" stroke="black" points="300.1,-84.8 175.9,-84.8 175.9,-48.8 300.1,-48.8 300.1,-84.8"/>
<text text-anchor="middle" x="238" y="-62.6" font-family="Times,serif" font-size="14.00">TopBarComponent</text>
</g>
<!-- TopBarComponent&#45;&gt;AppModule -->
<g id="edge4" class="edge">
<title>TopBarComponent&#45;&gt;AppModule</title>
<path fill="none" stroke="black" d="M238,-84.82C238,-102.17 238,-125.8 238,-125.8 238,-125.8 327.08,-125.8 327.08,-125.8"/>
<polygon fill="black" stroke="black" points="327.08,-129.3 337.08,-125.8 327.08,-122.3 327.08,-129.3"/>
</g>
<!-- AppComponent  -->
<g id="node7" class="node">
<title>AppComponent </title>
<polygon fill="#80b1d3" stroke="black" points="433.44,-214.8 324.56,-214.8 324.56,-178.8 433.44,-178.8 433.44,-214.8"/>
<text text-anchor="middle" x="379" y="-192.6" font-family="Times,serif" font-size="14.00">AppComponent </text>
</g>
<!-- AppModule&#45;&gt;AppComponent  -->
<g id="edge6" class="edge">
<title>AppModule&#45;&gt;AppComponent </title>
<path fill="none" stroke="black" stroke-dasharray="1,5" d="M379,-149.91C379,-149.91 379,-168.79 379,-168.79"/>
<polygon fill="black" stroke="black" points="375.5,-168.79 379,-178.79 382.5,-168.79 375.5,-168.79"/>
</g>
<!-- AppRoutingModule -->
<g id="node6" class="node">
<title>AppRoutingModule</title>
<polygon fill="#8dd3c7" stroke="black" points="152.27,-84.8 149.27,-88.8 128.27,-88.8 125.27,-84.8 23.73,-84.8 23.73,-48.8 152.27,-48.8 152.27,-84.8"/>
<text text-anchor="middle" x="88" y="-62.6" font-family="Times,serif" font-size="14.00">AppRoutingModule</text>
</g>
<!-- AppRoutingModule&#45;&gt;AppModule -->
<g id="edge5" class="edge">
<title>AppRoutingModule&#45;&gt;AppModule</title>
<path fill="none" stroke="black" d="M88,-85.08C88,-106.12 88,-137.8 88,-137.8 88,-137.8 327.31,-137.8 327.31,-137.8"/>
<polygon fill="black" stroke="black" points="327.31,-141.3 337.31,-137.8 327.31,-134.3 327.31,-141.3"/>
</g>
</g>
</svg>
